<svg preserveAspectRatio="none" width="100%" height="100%" overflow="visible" style="display: block;" viewBox="0 0 154 32" fill="none" xmlns="http://www.w3.org/2000/svg">
<path id="Vector" fill-rule="evenodd" clip-rule="evenodd" d="M30.5997 16.2464V30.7224H16.574V16.2468L23.5872 9.20614L30.5997 16.2464ZM1.27643 30.7205V17.5278L14.4165 30.7205H1.27643ZM15.348 14.4741L2.20645 1.28139H15.3484L15.348 14.4741ZM1.27417 15.7052V2.16624L15.2998 16.2464V29.7854L1.27417 15.7052ZM30.5982 1.23116V14.4257L23.5872 7.38508L16.5744 14.4257V1.23116H30.5982ZM0 0V32H31.8742V0H0ZM24.8083 24.7195C24.4212 24.8802 24.0062 24.9623 23.5872 24.9612C23.1682 24.9621 22.7532 24.8799 22.366 24.7193C21.9788 24.5587 21.6271 24.3229 21.3311 24.0254C21.0349 23.7279 20.8001 23.3747 20.6402 22.9861C20.4803 22.5975 20.3984 22.181 20.3992 21.7606C20.3983 21.2109 20.5389 20.6703 20.8072 20.191C21.0755 19.7117 21.4625 19.3099 21.9309 19.0245C22.43 18.7203 23.0032 18.5602 23.5872 18.5618C24.2181 18.5607 24.835 18.7477 25.3595 19.0992C25.8841 19.4506 26.2926 19.9506 26.5332 20.5355C26.6933 20.9239 26.7755 21.3402 26.7749 21.7606C26.7763 22.3937 26.5901 23.013 26.24 23.5399C25.8898 24.0667 25.3915 24.4773 24.8083 24.7195ZM26.7376 18.597C25.9021 17.758 24.7695 17.2847 23.5872 17.2804C22.4049 17.2852 21.2724 17.7587 20.4368 18.5977C19.6008 19.4373 19.1292 20.574 19.1246 21.7606C19.1286 22.9475 19.6 24.0847 20.4361 24.9246C21.2716 25.7642 22.4045 26.238 23.5872 26.2426C24.7695 26.2385 25.9025 25.7649 26.7388 24.925C27.5748 24.0848 28.0459 22.9472 28.0491 21.7602C28.0451 20.5736 27.5737 19.4366 26.7376 18.597ZM98.2426 7.99575H100.229C100.226 10.3157 100.227 12.6356 100.231 14.9556H101.692C103.883 14.9556 106.071 14.9575 108.262 14.9533V7.99575H110.25C110.247 10.0117 110.249 12.0291 110.25 14.0451V14.0488C110.252 17.2903 110.256 20.5313 110.237 23.7724C109.579 23.7879 108.92 23.7879 108.262 23.7841V16.8242H100.229C100.226 17.7567 100.226 18.6887 100.229 19.6212C100.231 21.0049 100.235 22.3886 100.217 23.7724C99.8726 23.7807 99.5281 23.7845 99.1832 23.7856C98.8695 23.7867 98.5559 23.7856 98.2426 23.7841C98.2441 18.521 98.2441 13.2588 98.2426 7.99575ZM53.1492 12.6768C54.0077 12.6379 54.9068 12.7486 55.6573 13.1927C56.9028 13.914 57.6461 15.3536 57.6559 16.7819C57.6634 18.2699 57.6615 19.7579 57.6596 21.2462V23.7841C56.9856 23.7879 56.312 23.7897 55.6384 23.7743C55.6245 22.6979 55.6268 21.6216 55.6305 20.5468C55.6343 19.364 55.6384 18.1789 55.6188 16.9964C55.588 16.1535 55.257 15.226 54.487 14.7909C53.923 14.4008 53.1974 14.397 52.5426 14.482C51.6864 14.5919 50.8991 15.0251 50.2518 15.5836C50.2182 15.6199 50.183 15.6547 50.1464 15.6879C50.0982 15.7332 50.0489 15.7793 50.0059 15.8291C49.9393 15.9069 49.8885 15.9934 49.8824 16.0995C49.8768 17.1936 49.8806 18.2873 49.8806 19.3814C49.8828 20.2099 49.8855 21.0385 49.8839 21.8671C49.8828 22.5034 49.8794 23.1398 49.8708 23.7765C49.1836 23.7897 48.4964 23.7954 47.8112 23.7629V12.8777C48.4542 12.8728 49.0972 12.8766 49.7401 12.8891L49.7439 12.9397C49.771 13.3049 49.7958 13.67 49.815 14.0356C50.7372 13.2199 51.9458 12.8158 53.1492 12.6768ZM67.7197 13.5175C66.0871 12.4121 63.7808 12.3426 62.1448 13.4786C61.2858 14.0816 60.5994 14.9 60.1541 15.8521C59.7558 16.7083 59.621 17.6709 59.6518 18.6102C59.6805 19.6049 59.9682 20.5747 60.4862 21.4234C61.0043 22.2721 61.7347 22.9701 62.605 23.448C63.1957 23.7803 63.8735 23.8981 64.5335 24.0005H65.2922C66.037 23.9 66.7878 23.6991 67.4155 23.2701C67.7673 23.0245 68.0936 22.7441 68.3896 22.4332C68.4042 22.7153 68.4238 22.9978 68.4472 23.2795C68.4626 23.4495 68.4762 23.6179 68.4856 23.7879C69.1151 23.7916 69.7428 23.7916 70.372 23.7803C70.3867 21.4558 70.3904 19.1313 70.3836 16.8069V12.8819C69.7382 12.8783 69.0927 12.8783 68.4472 12.8819C68.4396 13.1409 68.4261 13.4038 68.4125 13.6629C68.4046 13.829 68.3952 13.9933 68.3896 14.1595L68.3662 14.1365C68.2401 14.0016 68.1139 13.8664 67.9799 13.7403C67.8971 13.6616 67.8102 13.587 67.7197 13.5175ZM61.7212 17.0833C62.1467 15.6841 63.4228 14.5186 64.907 14.4299C66.2565 14.2652 67.5868 15.0289 68.3124 16.1441C68.3704 16.4825 68.3643 16.8284 68.3568 17.1743C68.3568 17.2895 68.3545 17.4047 68.3553 17.521C68.3553 17.5588 68.3557 17.5965 68.3568 17.6343C68.3489 18.0225 68.353 18.4112 68.3568 18.7994C68.3587 19.0864 68.3613 19.3727 68.3598 19.6593C68.3586 19.916 68.3524 20.1726 68.3414 20.429C67.8991 21.2041 67.1867 21.7879 66.3412 22.068C65.8329 22.2225 65.2941 22.2398 64.7666 22.2108C63.111 22.0253 61.7732 20.5468 61.5808 18.9138C61.5172 18.3028 61.5134 17.6691 61.7212 17.0833ZM77.5042 12.8139C78.3706 12.6304 79.2904 12.5858 80.1376 12.8932C81.6294 13.363 82.6536 14.8434 82.7884 16.3778C82.8155 16.7177 82.8155 17.0603 82.8155 17.4024V17.4198C82.8136 17.9765 82.8128 18.5335 82.8121 19.0902L82.8117 21.026V23.7841C82.5632 23.7822 82.3147 23.7841 82.0647 23.7879C81.6663 23.7916 81.2676 23.7977 80.8711 23.7803C80.7574 23.755 80.7732 23.6292 80.7864 23.5133C80.7962 23.4363 80.8037 23.3626 80.7807 23.3199C80.783 22.494 80.7837 21.6673 80.7841 20.8402L80.7845 19.2922V17.1645C80.798 16.5557 80.644 15.9394 80.3168 15.425C80.022 14.9688 79.5412 14.652 79.0212 14.5186C78.467 14.4065 77.8837 14.4065 77.3329 14.5496C76.567 14.7294 75.8836 15.172 75.3022 15.6939L75.2348 15.7555C75.1746 15.8076 75.1121 15.8627 75.0726 15.9288C75.0522 15.9607 75.0389 15.9965 75.0333 16.0339C75.0277 16.0713 75.0301 16.1095 75.0402 16.146C75.0266 17.2959 75.0308 18.4478 75.0345 19.5996C75.036 20.1801 75.0379 20.7609 75.0379 21.3418C75.0375 22.1575 75.033 22.9732 75.0172 23.7879C74.7476 23.7841 74.478 23.7879 74.2088 23.7879C73.8198 23.7916 73.435 23.7935 73.0498 23.7803C72.9369 23.7554 72.9516 23.6304 72.9651 23.5152V23.5133L72.9659 23.5099C72.9753 23.434 72.9839 23.3619 72.9595 23.3199C72.9632 21.3082 72.9632 19.2964 72.9632 17.2823V12.8796C73.6082 12.8758 74.2529 12.8758 74.8978 12.8796C74.9122 13.2629 74.9423 13.6451 74.9882 14.0258C75.6987 13.3996 76.5881 13.019 77.5042 12.8139ZM93.9859 13.8789C92.3808 12.5665 90.032 12.3135 88.1456 13.1368C86.6576 13.809 85.4256 15.1293 85.0118 16.7336C84.5709 18.3877 84.825 20.2704 85.8627 21.6545C86.6034 22.7059 87.6887 23.463 88.9292 23.7935C89.3016 23.8819 89.6788 23.9491 90.0591 23.9948H90.8675C91.6423 23.9262 92.3977 23.7137 93.0951 23.3683C94.2326 22.7444 95.1912 21.7508 95.6976 20.5468C96.2941 19.0528 96.2941 17.2978 95.582 15.8446C95.2183 15.0734 94.6407 14.4163 93.9859 13.8789ZM87.1196 16.5652C87.6896 15.4405 88.8234 14.5553 90.1013 14.4665C91.3758 14.3136 92.7197 14.8744 93.4607 15.9356C93.9554 16.5595 94.1862 17.3499 94.2152 18.1404C94.3056 19.3138 93.7724 20.4886 92.9064 21.2715C92.1632 22.0004 91.0795 22.2806 90.0629 22.199C88.9484 22.091 87.9242 21.4203 87.3353 20.4732C86.6 19.3289 86.4881 17.7812 87.1196 16.5652ZM114.726 13.6818C115.964 12.7905 117.575 12.4914 119.065 12.7716C120.649 13.0246 122.055 14.0605 122.886 15.425C123.648 16.6675 123.824 18.214 123.516 19.6246C123.202 21.1979 122.101 22.5393 120.724 23.3143C120.404 23.4933 120.065 23.6311 119.715 23.7365C119.281 23.8641 118.836 23.9512 118.386 23.9967H117.579C117.119 23.9385 116.659 23.8653 116.216 23.7259C114.69 23.2546 113.417 22.0642 112.787 20.5951C112.184 19.1311 112.183 17.4867 112.786 16.0221C113.207 15.0785 113.878 14.269 114.726 13.6818ZM117.621 14.4722C115.683 14.6289 114.095 16.5402 114.262 18.4806C114.26 19.7873 115.023 21.0336 116.12 21.7104C117.059 22.2844 118.253 22.3577 119.281 21.9902C120.409 21.571 121.277 20.5623 121.614 19.4123C121.914 18.3028 121.748 17.0444 121.067 16.1052C120.33 14.9866 118.961 14.2924 117.621 14.4722ZM131.287 12.6806C129.957 12.6051 128.686 13.2044 127.652 13.9967C127.626 13.7877 127.605 13.5781 127.59 13.3679C127.579 13.2055 127.571 13.0431 127.57 12.8796H125.635V17.2842C125.635 19.2983 125.635 21.31 125.631 23.3222C125.656 23.3645 125.647 23.4381 125.637 23.5114L125.637 23.5144C125.623 23.6338 125.609 23.7573 125.723 23.7822C126.068 23.7928 126.415 23.798 126.761 23.7962C127.057 23.7949 127.353 23.7876 127.649 23.7743L127.695 23.7301C127.712 22.2863 127.71 20.8406 127.706 19.3949L127.706 18.9731C127.704 17.9485 127.702 16.9251 127.71 15.9005C128.33 15.2762 129.083 14.7543 129.939 14.5224C130.658 14.3676 131.522 14.3929 132.074 14.9477C132.555 15.5081 132.652 16.2831 132.652 16.9964V23.786L133.757 23.7897H134.662C134.69 22.2436 134.686 20.6937 134.681 19.1457C134.679 18.0071 134.675 16.8688 134.684 15.7305C135.158 15.311 135.66 14.9035 136.257 14.6731C136.858 14.4227 137.522 14.3712 138.153 14.5262C138.593 14.6571 138.966 14.949 139.201 15.3438C139.474 15.8347 139.607 16.3918 139.585 16.9538V19.3406C139.585 20.6684 139.585 21.9944 139.582 23.3222C139.605 23.3645 139.595 23.4381 139.588 23.5114C139.572 23.6315 139.557 23.7569 139.672 23.7822C140.071 23.7996 140.469 23.7935 140.868 23.7879C141.114 23.7879 141.364 23.7841 141.614 23.7879V16.8261C141.632 15.7649 141.341 14.6697 140.65 13.8479C140.013 13.1153 139.052 12.7444 138.103 12.673C136.596 12.6186 135.141 13.2354 133.942 14.1145C133.358 13.2354 132.307 12.7674 131.287 12.6806ZM145.087 14.4125C146.058 13.3358 147.47 12.6458 148.927 12.6613C149.959 12.6266 151.043 12.8373 151.881 13.4771C152.385 13.8283 152.764 14.3313 153.103 14.8396C153.619 15.6263 153.877 16.5538 154 17.4814V18.2835C153.978 18.4267 153.953 18.5696 153.927 18.7121L153.923 18.7359C153.897 18.8722 153.874 19.0088 153.852 19.1457C153.065 19.1551 152.28 19.1589 151.494 19.16C150.697 19.1616 149.899 19.16 149.101 19.1589C147.928 19.157 146.756 19.1551 145.582 19.1608C145.598 19.2439 145.613 19.327 145.626 19.4101C145.657 19.6763 145.728 19.9358 145.838 20.1797C146.346 21.2946 147.489 22.0446 148.687 22.2013C150.142 22.2935 151.592 21.9505 152.853 21.2156C152.858 21.7315 152.86 22.2497 152.863 22.7678V23.1115C152.023 23.6428 151.031 23.8536 150.055 23.9423C149.053 23.9929 148.017 23.9774 147.066 23.616C145.093 22.9087 143.751 20.8927 143.632 18.8228C143.509 17.2419 143.953 15.5583 145.087 14.4125ZM148.009 14.505C147.307 14.7369 146.745 15.2645 146.306 15.8484C145.928 16.3412 145.711 16.9402 145.582 17.5452H152.15C152.175 16.4145 151.511 15.34 150.572 14.7486C149.813 14.2728 148.851 14.2596 148.009 14.505Z" fill="var(--fill-0, #111111)"/>
</svg>
